<mxfile host="app.diagrams.net" modified="2024-04-21T09:35:24.377Z" agent="Mozilla/5.0 (Macintosh; Intel Mac OS X 10_15_7) AppleWebKit/605.1.15 (KHTML, like Gecko) Version/17.4.1 Safari/605.1.15" etag="AuQsZ-6GHOhC1O_TAIW_" version="24.2.5" type="github">
  <diagram id="R2lEEEUBdFMjLlhIrx00" name="Page-1">
    <mxGraphModel dx="1122" dy="855" grid="1" gridSize="9" guides="1" tooltips="1" connect="1" arrows="1" fold="1" page="1" pageScale="1" pageWidth="1169" pageHeight="827" background="none" math="0" shadow="0" extFonts="Permanent Marker^https://fonts.googleapis.com/css?family=Permanent+Marker">
      <root>
        <mxCell id="0" />
        <mxCell id="1" parent="0" />
        <mxCell id="1ABcoUmwUPCNf6aUqQId-35" value="Homestay" style="shape=table;startSize=30;container=1;collapsible=1;childLayout=tableLayout;fixedRows=1;rowLines=0;fontStyle=1;align=center;resizeLast=1;html=1;" vertex="1" parent="1">
          <mxGeometry x="387" y="90" width="252.0000000000001" height="240" as="geometry" />
        </mxCell>
        <mxCell id="1ABcoUmwUPCNf6aUqQId-36" value="" style="shape=tableRow;horizontal=0;startSize=0;swimlaneHead=0;swimlaneBody=0;fillColor=none;collapsible=0;dropTarget=0;points=[[0,0.5],[1,0.5]];portConstraint=eastwest;top=0;left=0;right=0;bottom=1;" vertex="1" parent="1ABcoUmwUPCNf6aUqQId-35">
          <mxGeometry y="30" width="252.0000000000001" height="30" as="geometry" />
        </mxCell>
        <mxCell id="1ABcoUmwUPCNf6aUqQId-37" value="PK" style="shape=partialRectangle;connectable=0;fillColor=none;top=0;left=0;bottom=0;right=0;fontStyle=1;overflow=hidden;whiteSpace=wrap;html=1;" vertex="1" parent="1ABcoUmwUPCNf6aUqQId-36">
          <mxGeometry width="30" height="30" as="geometry">
            <mxRectangle width="30" height="30" as="alternateBounds" />
          </mxGeometry>
        </mxCell>
        <mxCell id="1ABcoUmwUPCNf6aUqQId-38" value="HomestayID" style="shape=partialRectangle;connectable=0;fillColor=none;top=0;left=0;bottom=0;right=0;align=left;spacingLeft=6;fontStyle=5;overflow=hidden;whiteSpace=wrap;html=1;" vertex="1" parent="1ABcoUmwUPCNf6aUqQId-36">
          <mxGeometry x="30" width="150.0000000000001" height="30" as="geometry">
            <mxRectangle width="150.0000000000001" height="30" as="alternateBounds" />
          </mxGeometry>
        </mxCell>
        <mxCell id="1ABcoUmwUPCNf6aUqQId-70" value="int" style="shape=partialRectangle;connectable=0;fillColor=none;top=0;left=0;bottom=0;right=0;align=left;spacingLeft=6;fontStyle=5;overflow=hidden;whiteSpace=wrap;html=1;" vertex="1" parent="1ABcoUmwUPCNf6aUqQId-36">
          <mxGeometry x="180.0000000000001" width="72" height="30" as="geometry">
            <mxRectangle width="72" height="30" as="alternateBounds" />
          </mxGeometry>
        </mxCell>
        <mxCell id="1ABcoUmwUPCNf6aUqQId-39" value="" style="shape=tableRow;horizontal=0;startSize=0;swimlaneHead=0;swimlaneBody=0;fillColor=none;collapsible=0;dropTarget=0;points=[[0,0.5],[1,0.5]];portConstraint=eastwest;top=0;left=0;right=0;bottom=0;" vertex="1" parent="1ABcoUmwUPCNf6aUqQId-35">
          <mxGeometry y="60" width="252.0000000000001" height="30" as="geometry" />
        </mxCell>
        <mxCell id="1ABcoUmwUPCNf6aUqQId-40" value="" style="shape=partialRectangle;connectable=0;fillColor=none;top=0;left=0;bottom=0;right=0;editable=1;overflow=hidden;whiteSpace=wrap;html=1;" vertex="1" parent="1ABcoUmwUPCNf6aUqQId-39">
          <mxGeometry width="30" height="30" as="geometry">
            <mxRectangle width="30" height="30" as="alternateBounds" />
          </mxGeometry>
        </mxCell>
        <mxCell id="1ABcoUmwUPCNf6aUqQId-41" value="HomestayName" style="shape=partialRectangle;connectable=0;fillColor=none;top=0;left=0;bottom=0;right=0;align=left;spacingLeft=6;overflow=hidden;whiteSpace=wrap;html=1;" vertex="1" parent="1ABcoUmwUPCNf6aUqQId-39">
          <mxGeometry x="30" width="150.0000000000001" height="30" as="geometry">
            <mxRectangle width="150.0000000000001" height="30" as="alternateBounds" />
          </mxGeometry>
        </mxCell>
        <mxCell id="1ABcoUmwUPCNf6aUqQId-71" value="varchar" style="shape=partialRectangle;connectable=0;fillColor=none;top=0;left=0;bottom=0;right=0;align=left;spacingLeft=6;overflow=hidden;whiteSpace=wrap;html=1;" vertex="1" parent="1ABcoUmwUPCNf6aUqQId-39">
          <mxGeometry x="180.0000000000001" width="72" height="30" as="geometry">
            <mxRectangle width="72" height="30" as="alternateBounds" />
          </mxGeometry>
        </mxCell>
        <mxCell id="1ABcoUmwUPCNf6aUqQId-42" value="" style="shape=tableRow;horizontal=0;startSize=0;swimlaneHead=0;swimlaneBody=0;fillColor=none;collapsible=0;dropTarget=0;points=[[0,0.5],[1,0.5]];portConstraint=eastwest;top=0;left=0;right=0;bottom=0;" vertex="1" parent="1ABcoUmwUPCNf6aUqQId-35">
          <mxGeometry y="90" width="252.0000000000001" height="30" as="geometry" />
        </mxCell>
        <mxCell id="1ABcoUmwUPCNf6aUqQId-43" value="FK1" style="shape=partialRectangle;connectable=0;fillColor=none;top=0;left=0;bottom=0;right=0;editable=1;overflow=hidden;whiteSpace=wrap;html=1;" vertex="1" parent="1ABcoUmwUPCNf6aUqQId-42">
          <mxGeometry width="30" height="30" as="geometry">
            <mxRectangle width="30" height="30" as="alternateBounds" />
          </mxGeometry>
        </mxCell>
        <mxCell id="1ABcoUmwUPCNf6aUqQId-44" value="HomestayOwner" style="shape=partialRectangle;connectable=0;fillColor=none;top=0;left=0;bottom=0;right=0;align=left;spacingLeft=6;overflow=hidden;whiteSpace=wrap;html=1;" vertex="1" parent="1ABcoUmwUPCNf6aUqQId-42">
          <mxGeometry x="30" width="150.0000000000001" height="30" as="geometry">
            <mxRectangle width="150.0000000000001" height="30" as="alternateBounds" />
          </mxGeometry>
        </mxCell>
        <mxCell id="1ABcoUmwUPCNf6aUqQId-72" value="int" style="shape=partialRectangle;connectable=0;fillColor=none;top=0;left=0;bottom=0;right=0;align=left;spacingLeft=6;overflow=hidden;whiteSpace=wrap;html=1;" vertex="1" parent="1ABcoUmwUPCNf6aUqQId-42">
          <mxGeometry x="180.0000000000001" width="72" height="30" as="geometry">
            <mxRectangle width="72" height="30" as="alternateBounds" />
          </mxGeometry>
        </mxCell>
        <mxCell id="1ABcoUmwUPCNf6aUqQId-45" value="" style="shape=tableRow;horizontal=0;startSize=0;swimlaneHead=0;swimlaneBody=0;fillColor=none;collapsible=0;dropTarget=0;points=[[0,0.5],[1,0.5]];portConstraint=eastwest;top=0;left=0;right=0;bottom=0;" vertex="1" parent="1ABcoUmwUPCNf6aUqQId-35">
          <mxGeometry y="120" width="252.0000000000001" height="30" as="geometry" />
        </mxCell>
        <mxCell id="1ABcoUmwUPCNf6aUqQId-46" value="" style="shape=partialRectangle;connectable=0;fillColor=none;top=0;left=0;bottom=0;right=0;editable=1;overflow=hidden;whiteSpace=wrap;html=1;" vertex="1" parent="1ABcoUmwUPCNf6aUqQId-45">
          <mxGeometry width="30" height="30" as="geometry">
            <mxRectangle width="30" height="30" as="alternateBounds" />
          </mxGeometry>
        </mxCell>
        <mxCell id="1ABcoUmwUPCNf6aUqQId-47" value="District" style="shape=partialRectangle;connectable=0;fillColor=none;top=0;left=0;bottom=0;right=0;align=left;spacingLeft=6;overflow=hidden;whiteSpace=wrap;html=1;" vertex="1" parent="1ABcoUmwUPCNf6aUqQId-45">
          <mxGeometry x="30" width="150.0000000000001" height="30" as="geometry">
            <mxRectangle width="150.0000000000001" height="30" as="alternateBounds" />
          </mxGeometry>
        </mxCell>
        <mxCell id="1ABcoUmwUPCNf6aUqQId-73" value="varchar" style="shape=partialRectangle;connectable=0;fillColor=none;top=0;left=0;bottom=0;right=0;align=left;spacingLeft=6;overflow=hidden;whiteSpace=wrap;html=1;" vertex="1" parent="1ABcoUmwUPCNf6aUqQId-45">
          <mxGeometry x="180.0000000000001" width="72" height="30" as="geometry">
            <mxRectangle width="72" height="30" as="alternateBounds" />
          </mxGeometry>
        </mxCell>
        <mxCell id="1ABcoUmwUPCNf6aUqQId-61" value="" style="shape=tableRow;horizontal=0;startSize=0;swimlaneHead=0;swimlaneBody=0;fillColor=none;collapsible=0;dropTarget=0;points=[[0,0.5],[1,0.5]];portConstraint=eastwest;top=0;left=0;right=0;bottom=0;" vertex="1" parent="1ABcoUmwUPCNf6aUqQId-35">
          <mxGeometry y="150" width="252.0000000000001" height="30" as="geometry" />
        </mxCell>
        <mxCell id="1ABcoUmwUPCNf6aUqQId-62" value="" style="shape=partialRectangle;connectable=0;fillColor=none;top=0;left=0;bottom=0;right=0;editable=1;overflow=hidden;whiteSpace=wrap;html=1;" vertex="1" parent="1ABcoUmwUPCNf6aUqQId-61">
          <mxGeometry width="30" height="30" as="geometry">
            <mxRectangle width="30" height="30" as="alternateBounds" />
          </mxGeometry>
        </mxCell>
        <mxCell id="1ABcoUmwUPCNf6aUqQId-63" value="Latitude" style="shape=partialRectangle;connectable=0;fillColor=none;top=0;left=0;bottom=0;right=0;align=left;spacingLeft=6;overflow=hidden;whiteSpace=wrap;html=1;" vertex="1" parent="1ABcoUmwUPCNf6aUqQId-61">
          <mxGeometry x="30" width="150.0000000000001" height="30" as="geometry">
            <mxRectangle width="150.0000000000001" height="30" as="alternateBounds" />
          </mxGeometry>
        </mxCell>
        <mxCell id="1ABcoUmwUPCNf6aUqQId-74" value="varchar" style="shape=partialRectangle;connectable=0;fillColor=none;top=0;left=0;bottom=0;right=0;align=left;spacingLeft=6;overflow=hidden;whiteSpace=wrap;html=1;" vertex="1" parent="1ABcoUmwUPCNf6aUqQId-61">
          <mxGeometry x="180.0000000000001" width="72" height="30" as="geometry">
            <mxRectangle width="72" height="30" as="alternateBounds" />
          </mxGeometry>
        </mxCell>
        <mxCell id="1ABcoUmwUPCNf6aUqQId-67" value="" style="shape=tableRow;horizontal=0;startSize=0;swimlaneHead=0;swimlaneBody=0;fillColor=none;collapsible=0;dropTarget=0;points=[[0,0.5],[1,0.5]];portConstraint=eastwest;top=0;left=0;right=0;bottom=0;" vertex="1" parent="1ABcoUmwUPCNf6aUqQId-35">
          <mxGeometry y="180" width="252.0000000000001" height="30" as="geometry" />
        </mxCell>
        <mxCell id="1ABcoUmwUPCNf6aUqQId-68" value="" style="shape=partialRectangle;connectable=0;fillColor=none;top=0;left=0;bottom=0;right=0;editable=1;overflow=hidden;whiteSpace=wrap;html=1;" vertex="1" parent="1ABcoUmwUPCNf6aUqQId-67">
          <mxGeometry width="30" height="30" as="geometry">
            <mxRectangle width="30" height="30" as="alternateBounds" />
          </mxGeometry>
        </mxCell>
        <mxCell id="1ABcoUmwUPCNf6aUqQId-69" value="Longitude" style="shape=partialRectangle;connectable=0;fillColor=none;top=0;left=0;bottom=0;right=0;align=left;spacingLeft=6;overflow=hidden;whiteSpace=wrap;html=1;" vertex="1" parent="1ABcoUmwUPCNf6aUqQId-67">
          <mxGeometry x="30" width="150.0000000000001" height="30" as="geometry">
            <mxRectangle width="150.0000000000001" height="30" as="alternateBounds" />
          </mxGeometry>
        </mxCell>
        <mxCell id="1ABcoUmwUPCNf6aUqQId-75" value="varchar" style="shape=partialRectangle;connectable=0;fillColor=none;top=0;left=0;bottom=0;right=0;align=left;spacingLeft=6;overflow=hidden;whiteSpace=wrap;html=1;" vertex="1" parent="1ABcoUmwUPCNf6aUqQId-67">
          <mxGeometry x="180.0000000000001" width="72" height="30" as="geometry">
            <mxRectangle width="72" height="30" as="alternateBounds" />
          </mxGeometry>
        </mxCell>
        <mxCell id="1ABcoUmwUPCNf6aUqQId-64" value="" style="shape=tableRow;horizontal=0;startSize=0;swimlaneHead=0;swimlaneBody=0;fillColor=none;collapsible=0;dropTarget=0;points=[[0,0.5],[1,0.5]];portConstraint=eastwest;top=0;left=0;right=0;bottom=0;" vertex="1" parent="1ABcoUmwUPCNf6aUqQId-35">
          <mxGeometry y="210" width="252.0000000000001" height="30" as="geometry" />
        </mxCell>
        <mxCell id="1ABcoUmwUPCNf6aUqQId-65" value="" style="shape=partialRectangle;connectable=0;fillColor=none;top=0;left=0;bottom=0;right=0;editable=1;overflow=hidden;whiteSpace=wrap;html=1;" vertex="1" parent="1ABcoUmwUPCNf6aUqQId-64">
          <mxGeometry width="30" height="30" as="geometry">
            <mxRectangle width="30" height="30" as="alternateBounds" />
          </mxGeometry>
        </mxCell>
        <mxCell id="1ABcoUmwUPCNf6aUqQId-66" value="PhotoURL" style="shape=partialRectangle;connectable=0;fillColor=none;top=0;left=0;bottom=0;right=0;align=left;spacingLeft=6;overflow=hidden;whiteSpace=wrap;html=1;" vertex="1" parent="1ABcoUmwUPCNf6aUqQId-64">
          <mxGeometry x="30" width="150.0000000000001" height="30" as="geometry">
            <mxRectangle width="150.0000000000001" height="30" as="alternateBounds" />
          </mxGeometry>
        </mxCell>
        <mxCell id="1ABcoUmwUPCNf6aUqQId-76" value="xml" style="shape=partialRectangle;connectable=0;fillColor=none;top=0;left=0;bottom=0;right=0;align=left;spacingLeft=6;overflow=hidden;whiteSpace=wrap;html=1;" vertex="1" parent="1ABcoUmwUPCNf6aUqQId-64">
          <mxGeometry x="180.0000000000001" width="72" height="30" as="geometry">
            <mxRectangle width="72" height="30" as="alternateBounds" />
          </mxGeometry>
        </mxCell>
        <mxCell id="1ABcoUmwUPCNf6aUqQId-77" value="User" style="shape=table;startSize=30;container=1;collapsible=1;childLayout=tableLayout;fixedRows=1;rowLines=0;fontStyle=1;align=center;resizeLast=1;html=1;" vertex="1" parent="1">
          <mxGeometry x="387" y="369" width="252.0000000000001" height="120" as="geometry" />
        </mxCell>
        <mxCell id="1ABcoUmwUPCNf6aUqQId-78" value="" style="shape=tableRow;horizontal=0;startSize=0;swimlaneHead=0;swimlaneBody=0;fillColor=none;collapsible=0;dropTarget=0;points=[[0,0.5],[1,0.5]];portConstraint=eastwest;top=0;left=0;right=0;bottom=1;" vertex="1" parent="1ABcoUmwUPCNf6aUqQId-77">
          <mxGeometry y="30" width="252.0000000000001" height="30" as="geometry" />
        </mxCell>
        <mxCell id="1ABcoUmwUPCNf6aUqQId-79" value="PK" style="shape=partialRectangle;connectable=0;fillColor=none;top=0;left=0;bottom=0;right=0;fontStyle=1;overflow=hidden;whiteSpace=wrap;html=1;" vertex="1" parent="1ABcoUmwUPCNf6aUqQId-78">
          <mxGeometry width="30" height="30" as="geometry">
            <mxRectangle width="30" height="30" as="alternateBounds" />
          </mxGeometry>
        </mxCell>
        <mxCell id="1ABcoUmwUPCNf6aUqQId-80" value="UserID" style="shape=partialRectangle;connectable=0;fillColor=none;top=0;left=0;bottom=0;right=0;align=left;spacingLeft=6;fontStyle=5;overflow=hidden;whiteSpace=wrap;html=1;" vertex="1" parent="1ABcoUmwUPCNf6aUqQId-78">
          <mxGeometry x="30" width="150.0000000000001" height="30" as="geometry">
            <mxRectangle width="150.0000000000001" height="30" as="alternateBounds" />
          </mxGeometry>
        </mxCell>
        <mxCell id="1ABcoUmwUPCNf6aUqQId-81" value="int" style="shape=partialRectangle;connectable=0;fillColor=none;top=0;left=0;bottom=0;right=0;align=left;spacingLeft=6;fontStyle=5;overflow=hidden;whiteSpace=wrap;html=1;" vertex="1" parent="1ABcoUmwUPCNf6aUqQId-78">
          <mxGeometry x="180.0000000000001" width="72" height="30" as="geometry">
            <mxRectangle width="72" height="30" as="alternateBounds" />
          </mxGeometry>
        </mxCell>
        <mxCell id="1ABcoUmwUPCNf6aUqQId-82" value="" style="shape=tableRow;horizontal=0;startSize=0;swimlaneHead=0;swimlaneBody=0;fillColor=none;collapsible=0;dropTarget=0;points=[[0,0.5],[1,0.5]];portConstraint=eastwest;top=0;left=0;right=0;bottom=0;" vertex="1" parent="1ABcoUmwUPCNf6aUqQId-77">
          <mxGeometry y="60" width="252.0000000000001" height="30" as="geometry" />
        </mxCell>
        <mxCell id="1ABcoUmwUPCNf6aUqQId-83" value="" style="shape=partialRectangle;connectable=0;fillColor=none;top=0;left=0;bottom=0;right=0;editable=1;overflow=hidden;whiteSpace=wrap;html=1;" vertex="1" parent="1ABcoUmwUPCNf6aUqQId-82">
          <mxGeometry width="30" height="30" as="geometry">
            <mxRectangle width="30" height="30" as="alternateBounds" />
          </mxGeometry>
        </mxCell>
        <mxCell id="1ABcoUmwUPCNf6aUqQId-84" value="Username" style="shape=partialRectangle;connectable=0;fillColor=none;top=0;left=0;bottom=0;right=0;align=left;spacingLeft=6;overflow=hidden;whiteSpace=wrap;html=1;" vertex="1" parent="1ABcoUmwUPCNf6aUqQId-82">
          <mxGeometry x="30" width="150.0000000000001" height="30" as="geometry">
            <mxRectangle width="150.0000000000001" height="30" as="alternateBounds" />
          </mxGeometry>
        </mxCell>
        <mxCell id="1ABcoUmwUPCNf6aUqQId-85" value="varchar" style="shape=partialRectangle;connectable=0;fillColor=none;top=0;left=0;bottom=0;right=0;align=left;spacingLeft=6;overflow=hidden;whiteSpace=wrap;html=1;" vertex="1" parent="1ABcoUmwUPCNf6aUqQId-82">
          <mxGeometry x="180.0000000000001" width="72" height="30" as="geometry">
            <mxRectangle width="72" height="30" as="alternateBounds" />
          </mxGeometry>
        </mxCell>
        <mxCell id="1ABcoUmwUPCNf6aUqQId-86" value="" style="shape=tableRow;horizontal=0;startSize=0;swimlaneHead=0;swimlaneBody=0;fillColor=none;collapsible=0;dropTarget=0;points=[[0,0.5],[1,0.5]];portConstraint=eastwest;top=0;left=0;right=0;bottom=0;" vertex="1" parent="1ABcoUmwUPCNf6aUqQId-77">
          <mxGeometry y="90" width="252.0000000000001" height="30" as="geometry" />
        </mxCell>
        <mxCell id="1ABcoUmwUPCNf6aUqQId-87" value="" style="shape=partialRectangle;connectable=0;fillColor=none;top=0;left=0;bottom=0;right=0;editable=1;overflow=hidden;whiteSpace=wrap;html=1;" vertex="1" parent="1ABcoUmwUPCNf6aUqQId-86">
          <mxGeometry width="30" height="30" as="geometry">
            <mxRectangle width="30" height="30" as="alternateBounds" />
          </mxGeometry>
        </mxCell>
        <mxCell id="1ABcoUmwUPCNf6aUqQId-88" value="Email" style="shape=partialRectangle;connectable=0;fillColor=none;top=0;left=0;bottom=0;right=0;align=left;spacingLeft=6;overflow=hidden;whiteSpace=wrap;html=1;" vertex="1" parent="1ABcoUmwUPCNf6aUqQId-86">
          <mxGeometry x="30" width="150.0000000000001" height="30" as="geometry">
            <mxRectangle width="150.0000000000001" height="30" as="alternateBounds" />
          </mxGeometry>
        </mxCell>
        <mxCell id="1ABcoUmwUPCNf6aUqQId-89" value="varchar" style="shape=partialRectangle;connectable=0;fillColor=none;top=0;left=0;bottom=0;right=0;align=left;spacingLeft=6;overflow=hidden;whiteSpace=wrap;html=1;" vertex="1" parent="1ABcoUmwUPCNf6aUqQId-86">
          <mxGeometry x="180.0000000000001" width="72" height="30" as="geometry">
            <mxRectangle width="72" height="30" as="alternateBounds" />
          </mxGeometry>
        </mxCell>
        <mxCell id="1ABcoUmwUPCNf6aUqQId-106" value="Booking" style="shape=table;startSize=30;container=1;collapsible=1;childLayout=tableLayout;fixedRows=1;rowLines=0;fontStyle=1;align=center;resizeLast=1;html=1;" vertex="1" parent="1">
          <mxGeometry x="711" y="90" width="252.0000000000001" height="210" as="geometry" />
        </mxCell>
        <mxCell id="1ABcoUmwUPCNf6aUqQId-107" value="" style="shape=tableRow;horizontal=0;startSize=0;swimlaneHead=0;swimlaneBody=0;fillColor=none;collapsible=0;dropTarget=0;points=[[0,0.5],[1,0.5]];portConstraint=eastwest;top=0;left=0;right=0;bottom=1;" vertex="1" parent="1ABcoUmwUPCNf6aUqQId-106">
          <mxGeometry y="30" width="252.0000000000001" height="30" as="geometry" />
        </mxCell>
        <mxCell id="1ABcoUmwUPCNf6aUqQId-108" value="PK" style="shape=partialRectangle;connectable=0;fillColor=none;top=0;left=0;bottom=0;right=0;fontStyle=1;overflow=hidden;whiteSpace=wrap;html=1;" vertex="1" parent="1ABcoUmwUPCNf6aUqQId-107">
          <mxGeometry width="30" height="30" as="geometry">
            <mxRectangle width="30" height="30" as="alternateBounds" />
          </mxGeometry>
        </mxCell>
        <mxCell id="1ABcoUmwUPCNf6aUqQId-109" value="BookingID" style="shape=partialRectangle;connectable=0;fillColor=none;top=0;left=0;bottom=0;right=0;align=left;spacingLeft=6;fontStyle=5;overflow=hidden;whiteSpace=wrap;html=1;" vertex="1" parent="1ABcoUmwUPCNf6aUqQId-107">
          <mxGeometry x="30" width="150.0000000000001" height="30" as="geometry">
            <mxRectangle width="150.0000000000001" height="30" as="alternateBounds" />
          </mxGeometry>
        </mxCell>
        <mxCell id="1ABcoUmwUPCNf6aUqQId-110" value="int" style="shape=partialRectangle;connectable=0;fillColor=none;top=0;left=0;bottom=0;right=0;align=left;spacingLeft=6;fontStyle=5;overflow=hidden;whiteSpace=wrap;html=1;" vertex="1" parent="1ABcoUmwUPCNf6aUqQId-107">
          <mxGeometry x="180.0000000000001" width="72" height="30" as="geometry">
            <mxRectangle width="72" height="30" as="alternateBounds" />
          </mxGeometry>
        </mxCell>
        <mxCell id="1ABcoUmwUPCNf6aUqQId-111" value="" style="shape=tableRow;horizontal=0;startSize=0;swimlaneHead=0;swimlaneBody=0;fillColor=none;collapsible=0;dropTarget=0;points=[[0,0.5],[1,0.5]];portConstraint=eastwest;top=0;left=0;right=0;bottom=0;" vertex="1" parent="1ABcoUmwUPCNf6aUqQId-106">
          <mxGeometry y="60" width="252.0000000000001" height="30" as="geometry" />
        </mxCell>
        <mxCell id="1ABcoUmwUPCNf6aUqQId-112" value="FK1" style="shape=partialRectangle;connectable=0;fillColor=none;top=0;left=0;bottom=0;right=0;editable=1;overflow=hidden;whiteSpace=wrap;html=1;" vertex="1" parent="1ABcoUmwUPCNf6aUqQId-111">
          <mxGeometry width="30" height="30" as="geometry">
            <mxRectangle width="30" height="30" as="alternateBounds" />
          </mxGeometry>
        </mxCell>
        <mxCell id="1ABcoUmwUPCNf6aUqQId-113" value="HomestayID" style="shape=partialRectangle;connectable=0;fillColor=none;top=0;left=0;bottom=0;right=0;align=left;spacingLeft=6;overflow=hidden;whiteSpace=wrap;html=1;" vertex="1" parent="1ABcoUmwUPCNf6aUqQId-111">
          <mxGeometry x="30" width="150.0000000000001" height="30" as="geometry">
            <mxRectangle width="150.0000000000001" height="30" as="alternateBounds" />
          </mxGeometry>
        </mxCell>
        <mxCell id="1ABcoUmwUPCNf6aUqQId-114" value="int" style="shape=partialRectangle;connectable=0;fillColor=none;top=0;left=0;bottom=0;right=0;align=left;spacingLeft=6;overflow=hidden;whiteSpace=wrap;html=1;" vertex="1" parent="1ABcoUmwUPCNf6aUqQId-111">
          <mxGeometry x="180.0000000000001" width="72" height="30" as="geometry">
            <mxRectangle width="72" height="30" as="alternateBounds" />
          </mxGeometry>
        </mxCell>
        <mxCell id="1ABcoUmwUPCNf6aUqQId-115" value="" style="shape=tableRow;horizontal=0;startSize=0;swimlaneHead=0;swimlaneBody=0;fillColor=none;collapsible=0;dropTarget=0;points=[[0,0.5],[1,0.5]];portConstraint=eastwest;top=0;left=0;right=0;bottom=0;" vertex="1" parent="1ABcoUmwUPCNf6aUqQId-106">
          <mxGeometry y="90" width="252.0000000000001" height="30" as="geometry" />
        </mxCell>
        <mxCell id="1ABcoUmwUPCNf6aUqQId-116" value="FK2" style="shape=partialRectangle;connectable=0;fillColor=none;top=0;left=0;bottom=0;right=0;editable=1;overflow=hidden;whiteSpace=wrap;html=1;" vertex="1" parent="1ABcoUmwUPCNf6aUqQId-115">
          <mxGeometry width="30" height="30" as="geometry">
            <mxRectangle width="30" height="30" as="alternateBounds" />
          </mxGeometry>
        </mxCell>
        <mxCell id="1ABcoUmwUPCNf6aUqQId-117" value="UserID" style="shape=partialRectangle;connectable=0;fillColor=none;top=0;left=0;bottom=0;right=0;align=left;spacingLeft=6;overflow=hidden;whiteSpace=wrap;html=1;" vertex="1" parent="1ABcoUmwUPCNf6aUqQId-115">
          <mxGeometry x="30" width="150.0000000000001" height="30" as="geometry">
            <mxRectangle width="150.0000000000001" height="30" as="alternateBounds" />
          </mxGeometry>
        </mxCell>
        <mxCell id="1ABcoUmwUPCNf6aUqQId-118" value="int" style="shape=partialRectangle;connectable=0;fillColor=none;top=0;left=0;bottom=0;right=0;align=left;spacingLeft=6;overflow=hidden;whiteSpace=wrap;html=1;" vertex="1" parent="1ABcoUmwUPCNf6aUqQId-115">
          <mxGeometry x="180.0000000000001" width="72" height="30" as="geometry">
            <mxRectangle width="72" height="30" as="alternateBounds" />
          </mxGeometry>
        </mxCell>
        <mxCell id="1ABcoUmwUPCNf6aUqQId-119" value="" style="shape=tableRow;horizontal=0;startSize=0;swimlaneHead=0;swimlaneBody=0;fillColor=none;collapsible=0;dropTarget=0;points=[[0,0.5],[1,0.5]];portConstraint=eastwest;top=0;left=0;right=0;bottom=0;" vertex="1" parent="1ABcoUmwUPCNf6aUqQId-106">
          <mxGeometry y="120" width="252.0000000000001" height="30" as="geometry" />
        </mxCell>
        <mxCell id="1ABcoUmwUPCNf6aUqQId-120" value="" style="shape=partialRectangle;connectable=0;fillColor=none;top=0;left=0;bottom=0;right=0;editable=1;overflow=hidden;whiteSpace=wrap;html=1;" vertex="1" parent="1ABcoUmwUPCNf6aUqQId-119">
          <mxGeometry width="30" height="30" as="geometry">
            <mxRectangle width="30" height="30" as="alternateBounds" />
          </mxGeometry>
        </mxCell>
        <mxCell id="1ABcoUmwUPCNf6aUqQId-121" value="Date" style="shape=partialRectangle;connectable=0;fillColor=none;top=0;left=0;bottom=0;right=0;align=left;spacingLeft=6;overflow=hidden;whiteSpace=wrap;html=1;" vertex="1" parent="1ABcoUmwUPCNf6aUqQId-119">
          <mxGeometry x="30" width="150.0000000000001" height="30" as="geometry">
            <mxRectangle width="150.0000000000001" height="30" as="alternateBounds" />
          </mxGeometry>
        </mxCell>
        <mxCell id="1ABcoUmwUPCNf6aUqQId-122" value="date" style="shape=partialRectangle;connectable=0;fillColor=none;top=0;left=0;bottom=0;right=0;align=left;spacingLeft=6;overflow=hidden;whiteSpace=wrap;html=1;" vertex="1" parent="1ABcoUmwUPCNf6aUqQId-119">
          <mxGeometry x="180.0000000000001" width="72" height="30" as="geometry">
            <mxRectangle width="72" height="30" as="alternateBounds" />
          </mxGeometry>
        </mxCell>
        <mxCell id="1ABcoUmwUPCNf6aUqQId-123" value="" style="shape=tableRow;horizontal=0;startSize=0;swimlaneHead=0;swimlaneBody=0;fillColor=none;collapsible=0;dropTarget=0;points=[[0,0.5],[1,0.5]];portConstraint=eastwest;top=0;left=0;right=0;bottom=0;" vertex="1" parent="1ABcoUmwUPCNf6aUqQId-106">
          <mxGeometry y="150" width="252.0000000000001" height="30" as="geometry" />
        </mxCell>
        <mxCell id="1ABcoUmwUPCNf6aUqQId-124" value="" style="shape=partialRectangle;connectable=0;fillColor=none;top=0;left=0;bottom=0;right=0;editable=1;overflow=hidden;whiteSpace=wrap;html=1;" vertex="1" parent="1ABcoUmwUPCNf6aUqQId-123">
          <mxGeometry width="30" height="30" as="geometry">
            <mxRectangle width="30" height="30" as="alternateBounds" />
          </mxGeometry>
        </mxCell>
        <mxCell id="1ABcoUmwUPCNf6aUqQId-125" value="Status" style="shape=partialRectangle;connectable=0;fillColor=none;top=0;left=0;bottom=0;right=0;align=left;spacingLeft=6;overflow=hidden;whiteSpace=wrap;html=1;" vertex="1" parent="1ABcoUmwUPCNf6aUqQId-123">
          <mxGeometry x="30" width="150.0000000000001" height="30" as="geometry">
            <mxRectangle width="150.0000000000001" height="30" as="alternateBounds" />
          </mxGeometry>
        </mxCell>
        <mxCell id="1ABcoUmwUPCNf6aUqQId-126" value="varchar" style="shape=partialRectangle;connectable=0;fillColor=none;top=0;left=0;bottom=0;right=0;align=left;spacingLeft=6;overflow=hidden;whiteSpace=wrap;html=1;" vertex="1" parent="1ABcoUmwUPCNf6aUqQId-123">
          <mxGeometry x="180.0000000000001" width="72" height="30" as="geometry">
            <mxRectangle width="72" height="30" as="alternateBounds" />
          </mxGeometry>
        </mxCell>
        <mxCell id="1ABcoUmwUPCNf6aUqQId-135" value="" style="shape=tableRow;horizontal=0;startSize=0;swimlaneHead=0;swimlaneBody=0;fillColor=none;collapsible=0;dropTarget=0;points=[[0,0.5],[1,0.5]];portConstraint=eastwest;top=0;left=0;right=0;bottom=0;" vertex="1" parent="1ABcoUmwUPCNf6aUqQId-106">
          <mxGeometry y="180" width="252.0000000000001" height="30" as="geometry" />
        </mxCell>
        <mxCell id="1ABcoUmwUPCNf6aUqQId-136" value="" style="shape=partialRectangle;connectable=0;fillColor=none;top=0;left=0;bottom=0;right=0;editable=1;overflow=hidden;whiteSpace=wrap;html=1;" vertex="1" parent="1ABcoUmwUPCNf6aUqQId-135">
          <mxGeometry width="30" height="30" as="geometry">
            <mxRectangle width="30" height="30" as="alternateBounds" />
          </mxGeometry>
        </mxCell>
        <mxCell id="1ABcoUmwUPCNf6aUqQId-137" value="PaymentSlip" style="shape=partialRectangle;connectable=0;fillColor=none;top=0;left=0;bottom=0;right=0;align=left;spacingLeft=6;overflow=hidden;whiteSpace=wrap;html=1;" vertex="1" parent="1ABcoUmwUPCNf6aUqQId-135">
          <mxGeometry x="30" width="150.0000000000001" height="30" as="geometry">
            <mxRectangle width="150.0000000000001" height="30" as="alternateBounds" />
          </mxGeometry>
        </mxCell>
        <mxCell id="1ABcoUmwUPCNf6aUqQId-138" value="xml" style="shape=partialRectangle;connectable=0;fillColor=none;top=0;left=0;bottom=0;right=0;align=left;spacingLeft=6;overflow=hidden;whiteSpace=wrap;html=1;" vertex="1" parent="1ABcoUmwUPCNf6aUqQId-135">
          <mxGeometry x="180.0000000000001" width="72" height="30" as="geometry">
            <mxRectangle width="72" height="30" as="alternateBounds" />
          </mxGeometry>
        </mxCell>
        <mxCell id="1ABcoUmwUPCNf6aUqQId-139" value="Attraction" style="shape=table;startSize=30;container=1;collapsible=1;childLayout=tableLayout;fixedRows=1;rowLines=0;fontStyle=1;align=center;resizeLast=1;html=1;" vertex="1" parent="1">
          <mxGeometry x="711" y="369" width="252.0000000000001" height="240" as="geometry" />
        </mxCell>
        <mxCell id="1ABcoUmwUPCNf6aUqQId-140" value="" style="shape=tableRow;horizontal=0;startSize=0;swimlaneHead=0;swimlaneBody=0;fillColor=none;collapsible=0;dropTarget=0;points=[[0,0.5],[1,0.5]];portConstraint=eastwest;top=0;left=0;right=0;bottom=1;" vertex="1" parent="1ABcoUmwUPCNf6aUqQId-139">
          <mxGeometry y="30" width="252.0000000000001" height="30" as="geometry" />
        </mxCell>
        <mxCell id="1ABcoUmwUPCNf6aUqQId-141" value="PK" style="shape=partialRectangle;connectable=0;fillColor=none;top=0;left=0;bottom=0;right=0;fontStyle=1;overflow=hidden;whiteSpace=wrap;html=1;" vertex="1" parent="1ABcoUmwUPCNf6aUqQId-140">
          <mxGeometry width="30" height="30" as="geometry">
            <mxRectangle width="30" height="30" as="alternateBounds" />
          </mxGeometry>
        </mxCell>
        <mxCell id="1ABcoUmwUPCNf6aUqQId-142" value="AttractionID" style="shape=partialRectangle;connectable=0;fillColor=none;top=0;left=0;bottom=0;right=0;align=left;spacingLeft=6;fontStyle=5;overflow=hidden;whiteSpace=wrap;html=1;" vertex="1" parent="1ABcoUmwUPCNf6aUqQId-140">
          <mxGeometry x="30" width="150.0000000000001" height="30" as="geometry">
            <mxRectangle width="150.0000000000001" height="30" as="alternateBounds" />
          </mxGeometry>
        </mxCell>
        <mxCell id="1ABcoUmwUPCNf6aUqQId-143" value="int" style="shape=partialRectangle;connectable=0;fillColor=none;top=0;left=0;bottom=0;right=0;align=left;spacingLeft=6;fontStyle=5;overflow=hidden;whiteSpace=wrap;html=1;" vertex="1" parent="1ABcoUmwUPCNf6aUqQId-140">
          <mxGeometry x="180.0000000000001" width="72" height="30" as="geometry">
            <mxRectangle width="72" height="30" as="alternateBounds" />
          </mxGeometry>
        </mxCell>
        <mxCell id="1ABcoUmwUPCNf6aUqQId-144" value="" style="shape=tableRow;horizontal=0;startSize=0;swimlaneHead=0;swimlaneBody=0;fillColor=none;collapsible=0;dropTarget=0;points=[[0,0.5],[1,0.5]];portConstraint=eastwest;top=0;left=0;right=0;bottom=0;" vertex="1" parent="1ABcoUmwUPCNf6aUqQId-139">
          <mxGeometry y="60" width="252.0000000000001" height="30" as="geometry" />
        </mxCell>
        <mxCell id="1ABcoUmwUPCNf6aUqQId-145" value="" style="shape=partialRectangle;connectable=0;fillColor=none;top=0;left=0;bottom=0;right=0;editable=1;overflow=hidden;whiteSpace=wrap;html=1;" vertex="1" parent="1ABcoUmwUPCNf6aUqQId-144">
          <mxGeometry width="30" height="30" as="geometry">
            <mxRectangle width="30" height="30" as="alternateBounds" />
          </mxGeometry>
        </mxCell>
        <mxCell id="1ABcoUmwUPCNf6aUqQId-146" value="AttractionName" style="shape=partialRectangle;connectable=0;fillColor=none;top=0;left=0;bottom=0;right=0;align=left;spacingLeft=6;overflow=hidden;whiteSpace=wrap;html=1;" vertex="1" parent="1ABcoUmwUPCNf6aUqQId-144">
          <mxGeometry x="30" width="150.0000000000001" height="30" as="geometry">
            <mxRectangle width="150.0000000000001" height="30" as="alternateBounds" />
          </mxGeometry>
        </mxCell>
        <mxCell id="1ABcoUmwUPCNf6aUqQId-147" value="varchar" style="shape=partialRectangle;connectable=0;fillColor=none;top=0;left=0;bottom=0;right=0;align=left;spacingLeft=6;overflow=hidden;whiteSpace=wrap;html=1;" vertex="1" parent="1ABcoUmwUPCNf6aUqQId-144">
          <mxGeometry x="180.0000000000001" width="72" height="30" as="geometry">
            <mxRectangle width="72" height="30" as="alternateBounds" />
          </mxGeometry>
        </mxCell>
        <mxCell id="1ABcoUmwUPCNf6aUqQId-148" value="" style="shape=tableRow;horizontal=0;startSize=0;swimlaneHead=0;swimlaneBody=0;fillColor=none;collapsible=0;dropTarget=0;points=[[0,0.5],[1,0.5]];portConstraint=eastwest;top=0;left=0;right=0;bottom=0;" vertex="1" parent="1ABcoUmwUPCNf6aUqQId-139">
          <mxGeometry y="90" width="252.0000000000001" height="30" as="geometry" />
        </mxCell>
        <mxCell id="1ABcoUmwUPCNf6aUqQId-149" value="" style="shape=partialRectangle;connectable=0;fillColor=none;top=0;left=0;bottom=0;right=0;editable=1;overflow=hidden;whiteSpace=wrap;html=1;" vertex="1" parent="1ABcoUmwUPCNf6aUqQId-148">
          <mxGeometry width="30" height="30" as="geometry">
            <mxRectangle width="30" height="30" as="alternateBounds" />
          </mxGeometry>
        </mxCell>
        <mxCell id="1ABcoUmwUPCNf6aUqQId-150" value="Description" style="shape=partialRectangle;connectable=0;fillColor=none;top=0;left=0;bottom=0;right=0;align=left;spacingLeft=6;overflow=hidden;whiteSpace=wrap;html=1;" vertex="1" parent="1ABcoUmwUPCNf6aUqQId-148">
          <mxGeometry x="30" width="150.0000000000001" height="30" as="geometry">
            <mxRectangle width="150.0000000000001" height="30" as="alternateBounds" />
          </mxGeometry>
        </mxCell>
        <mxCell id="1ABcoUmwUPCNf6aUqQId-151" value="int" style="shape=partialRectangle;connectable=0;fillColor=none;top=0;left=0;bottom=0;right=0;align=left;spacingLeft=6;overflow=hidden;whiteSpace=wrap;html=1;" vertex="1" parent="1ABcoUmwUPCNf6aUqQId-148">
          <mxGeometry x="180.0000000000001" width="72" height="30" as="geometry">
            <mxRectangle width="72" height="30" as="alternateBounds" />
          </mxGeometry>
        </mxCell>
        <mxCell id="1ABcoUmwUPCNf6aUqQId-152" value="" style="shape=tableRow;horizontal=0;startSize=0;swimlaneHead=0;swimlaneBody=0;fillColor=none;collapsible=0;dropTarget=0;points=[[0,0.5],[1,0.5]];portConstraint=eastwest;top=0;left=0;right=0;bottom=0;" vertex="1" parent="1ABcoUmwUPCNf6aUqQId-139">
          <mxGeometry y="120" width="252.0000000000001" height="30" as="geometry" />
        </mxCell>
        <mxCell id="1ABcoUmwUPCNf6aUqQId-153" value="" style="shape=partialRectangle;connectable=0;fillColor=none;top=0;left=0;bottom=0;right=0;editable=1;overflow=hidden;whiteSpace=wrap;html=1;" vertex="1" parent="1ABcoUmwUPCNf6aUqQId-152">
          <mxGeometry width="30" height="30" as="geometry">
            <mxRectangle width="30" height="30" as="alternateBounds" />
          </mxGeometry>
        </mxCell>
        <mxCell id="1ABcoUmwUPCNf6aUqQId-154" value="District" style="shape=partialRectangle;connectable=0;fillColor=none;top=0;left=0;bottom=0;right=0;align=left;spacingLeft=6;overflow=hidden;whiteSpace=wrap;html=1;" vertex="1" parent="1ABcoUmwUPCNf6aUqQId-152">
          <mxGeometry x="30" width="150.0000000000001" height="30" as="geometry">
            <mxRectangle width="150.0000000000001" height="30" as="alternateBounds" />
          </mxGeometry>
        </mxCell>
        <mxCell id="1ABcoUmwUPCNf6aUqQId-155" value="varchar" style="shape=partialRectangle;connectable=0;fillColor=none;top=0;left=0;bottom=0;right=0;align=left;spacingLeft=6;overflow=hidden;whiteSpace=wrap;html=1;" vertex="1" parent="1ABcoUmwUPCNf6aUqQId-152">
          <mxGeometry x="180.0000000000001" width="72" height="30" as="geometry">
            <mxRectangle width="72" height="30" as="alternateBounds" />
          </mxGeometry>
        </mxCell>
        <mxCell id="1ABcoUmwUPCNf6aUqQId-156" value="" style="shape=tableRow;horizontal=0;startSize=0;swimlaneHead=0;swimlaneBody=0;fillColor=none;collapsible=0;dropTarget=0;points=[[0,0.5],[1,0.5]];portConstraint=eastwest;top=0;left=0;right=0;bottom=0;" vertex="1" parent="1ABcoUmwUPCNf6aUqQId-139">
          <mxGeometry y="150" width="252.0000000000001" height="30" as="geometry" />
        </mxCell>
        <mxCell id="1ABcoUmwUPCNf6aUqQId-157" value="" style="shape=partialRectangle;connectable=0;fillColor=none;top=0;left=0;bottom=0;right=0;editable=1;overflow=hidden;whiteSpace=wrap;html=1;" vertex="1" parent="1ABcoUmwUPCNf6aUqQId-156">
          <mxGeometry width="30" height="30" as="geometry">
            <mxRectangle width="30" height="30" as="alternateBounds" />
          </mxGeometry>
        </mxCell>
        <mxCell id="1ABcoUmwUPCNf6aUqQId-158" value="Latitude" style="shape=partialRectangle;connectable=0;fillColor=none;top=0;left=0;bottom=0;right=0;align=left;spacingLeft=6;overflow=hidden;whiteSpace=wrap;html=1;" vertex="1" parent="1ABcoUmwUPCNf6aUqQId-156">
          <mxGeometry x="30" width="150.0000000000001" height="30" as="geometry">
            <mxRectangle width="150.0000000000001" height="30" as="alternateBounds" />
          </mxGeometry>
        </mxCell>
        <mxCell id="1ABcoUmwUPCNf6aUqQId-159" value="varchar" style="shape=partialRectangle;connectable=0;fillColor=none;top=0;left=0;bottom=0;right=0;align=left;spacingLeft=6;overflow=hidden;whiteSpace=wrap;html=1;" vertex="1" parent="1ABcoUmwUPCNf6aUqQId-156">
          <mxGeometry x="180.0000000000001" width="72" height="30" as="geometry">
            <mxRectangle width="72" height="30" as="alternateBounds" />
          </mxGeometry>
        </mxCell>
        <mxCell id="1ABcoUmwUPCNf6aUqQId-160" value="" style="shape=tableRow;horizontal=0;startSize=0;swimlaneHead=0;swimlaneBody=0;fillColor=none;collapsible=0;dropTarget=0;points=[[0,0.5],[1,0.5]];portConstraint=eastwest;top=0;left=0;right=0;bottom=0;" vertex="1" parent="1ABcoUmwUPCNf6aUqQId-139">
          <mxGeometry y="180" width="252.0000000000001" height="30" as="geometry" />
        </mxCell>
        <mxCell id="1ABcoUmwUPCNf6aUqQId-161" value="" style="shape=partialRectangle;connectable=0;fillColor=none;top=0;left=0;bottom=0;right=0;editable=1;overflow=hidden;whiteSpace=wrap;html=1;" vertex="1" parent="1ABcoUmwUPCNf6aUqQId-160">
          <mxGeometry width="30" height="30" as="geometry">
            <mxRectangle width="30" height="30" as="alternateBounds" />
          </mxGeometry>
        </mxCell>
        <mxCell id="1ABcoUmwUPCNf6aUqQId-162" value="Longitude" style="shape=partialRectangle;connectable=0;fillColor=none;top=0;left=0;bottom=0;right=0;align=left;spacingLeft=6;overflow=hidden;whiteSpace=wrap;html=1;" vertex="1" parent="1ABcoUmwUPCNf6aUqQId-160">
          <mxGeometry x="30" width="150.0000000000001" height="30" as="geometry">
            <mxRectangle width="150.0000000000001" height="30" as="alternateBounds" />
          </mxGeometry>
        </mxCell>
        <mxCell id="1ABcoUmwUPCNf6aUqQId-163" value="varchar" style="shape=partialRectangle;connectable=0;fillColor=none;top=0;left=0;bottom=0;right=0;align=left;spacingLeft=6;overflow=hidden;whiteSpace=wrap;html=1;" vertex="1" parent="1ABcoUmwUPCNf6aUqQId-160">
          <mxGeometry x="180.0000000000001" width="72" height="30" as="geometry">
            <mxRectangle width="72" height="30" as="alternateBounds" />
          </mxGeometry>
        </mxCell>
        <mxCell id="1ABcoUmwUPCNf6aUqQId-164" value="" style="shape=tableRow;horizontal=0;startSize=0;swimlaneHead=0;swimlaneBody=0;fillColor=none;collapsible=0;dropTarget=0;points=[[0,0.5],[1,0.5]];portConstraint=eastwest;top=0;left=0;right=0;bottom=0;" vertex="1" parent="1ABcoUmwUPCNf6aUqQId-139">
          <mxGeometry y="210" width="252.0000000000001" height="30" as="geometry" />
        </mxCell>
        <mxCell id="1ABcoUmwUPCNf6aUqQId-165" value="" style="shape=partialRectangle;connectable=0;fillColor=none;top=0;left=0;bottom=0;right=0;editable=1;overflow=hidden;whiteSpace=wrap;html=1;" vertex="1" parent="1ABcoUmwUPCNf6aUqQId-164">
          <mxGeometry width="30" height="30" as="geometry">
            <mxRectangle width="30" height="30" as="alternateBounds" />
          </mxGeometry>
        </mxCell>
        <mxCell id="1ABcoUmwUPCNf6aUqQId-166" value="PhotoURL" style="shape=partialRectangle;connectable=0;fillColor=none;top=0;left=0;bottom=0;right=0;align=left;spacingLeft=6;overflow=hidden;whiteSpace=wrap;html=1;" vertex="1" parent="1ABcoUmwUPCNf6aUqQId-164">
          <mxGeometry x="30" width="150.0000000000001" height="30" as="geometry">
            <mxRectangle width="150.0000000000001" height="30" as="alternateBounds" />
          </mxGeometry>
        </mxCell>
        <mxCell id="1ABcoUmwUPCNf6aUqQId-167" value="xml" style="shape=partialRectangle;connectable=0;fillColor=none;top=0;left=0;bottom=0;right=0;align=left;spacingLeft=6;overflow=hidden;whiteSpace=wrap;html=1;" vertex="1" parent="1ABcoUmwUPCNf6aUqQId-164">
          <mxGeometry x="180.0000000000001" width="72" height="30" as="geometry">
            <mxRectangle width="72" height="30" as="alternateBounds" />
          </mxGeometry>
        </mxCell>
        <mxCell id="1ABcoUmwUPCNf6aUqQId-181" value="Owner" style="shape=table;startSize=30;container=1;collapsible=1;childLayout=tableLayout;fixedRows=1;rowLines=0;fontStyle=1;align=center;resizeLast=1;html=1;" vertex="1" parent="1">
          <mxGeometry x="72" y="90" width="252.0000000000001" height="120" as="geometry" />
        </mxCell>
        <mxCell id="1ABcoUmwUPCNf6aUqQId-182" value="" style="shape=tableRow;horizontal=0;startSize=0;swimlaneHead=0;swimlaneBody=0;fillColor=none;collapsible=0;dropTarget=0;points=[[0,0.5],[1,0.5]];portConstraint=eastwest;top=0;left=0;right=0;bottom=1;" vertex="1" parent="1ABcoUmwUPCNf6aUqQId-181">
          <mxGeometry y="30" width="252.0000000000001" height="30" as="geometry" />
        </mxCell>
        <mxCell id="1ABcoUmwUPCNf6aUqQId-183" value="PK" style="shape=partialRectangle;connectable=0;fillColor=none;top=0;left=0;bottom=0;right=0;fontStyle=1;overflow=hidden;whiteSpace=wrap;html=1;" vertex="1" parent="1ABcoUmwUPCNf6aUqQId-182">
          <mxGeometry width="30" height="30" as="geometry">
            <mxRectangle width="30" height="30" as="alternateBounds" />
          </mxGeometry>
        </mxCell>
        <mxCell id="1ABcoUmwUPCNf6aUqQId-184" value="OwnerID" style="shape=partialRectangle;connectable=0;fillColor=none;top=0;left=0;bottom=0;right=0;align=left;spacingLeft=6;fontStyle=5;overflow=hidden;whiteSpace=wrap;html=1;" vertex="1" parent="1ABcoUmwUPCNf6aUqQId-182">
          <mxGeometry x="30" width="150.0000000000001" height="30" as="geometry">
            <mxRectangle width="150.0000000000001" height="30" as="alternateBounds" />
          </mxGeometry>
        </mxCell>
        <mxCell id="1ABcoUmwUPCNf6aUqQId-185" value="int" style="shape=partialRectangle;connectable=0;fillColor=none;top=0;left=0;bottom=0;right=0;align=left;spacingLeft=6;fontStyle=5;overflow=hidden;whiteSpace=wrap;html=1;" vertex="1" parent="1ABcoUmwUPCNf6aUqQId-182">
          <mxGeometry x="180.0000000000001" width="72" height="30" as="geometry">
            <mxRectangle width="72" height="30" as="alternateBounds" />
          </mxGeometry>
        </mxCell>
        <mxCell id="1ABcoUmwUPCNf6aUqQId-186" value="" style="shape=tableRow;horizontal=0;startSize=0;swimlaneHead=0;swimlaneBody=0;fillColor=none;collapsible=0;dropTarget=0;points=[[0,0.5],[1,0.5]];portConstraint=eastwest;top=0;left=0;right=0;bottom=0;" vertex="1" parent="1ABcoUmwUPCNf6aUqQId-181">
          <mxGeometry y="60" width="252.0000000000001" height="30" as="geometry" />
        </mxCell>
        <mxCell id="1ABcoUmwUPCNf6aUqQId-187" value="" style="shape=partialRectangle;connectable=0;fillColor=none;top=0;left=0;bottom=0;right=0;editable=1;overflow=hidden;whiteSpace=wrap;html=1;" vertex="1" parent="1ABcoUmwUPCNf6aUqQId-186">
          <mxGeometry width="30" height="30" as="geometry">
            <mxRectangle width="30" height="30" as="alternateBounds" />
          </mxGeometry>
        </mxCell>
        <mxCell id="1ABcoUmwUPCNf6aUqQId-188" value="Username" style="shape=partialRectangle;connectable=0;fillColor=none;top=0;left=0;bottom=0;right=0;align=left;spacingLeft=6;overflow=hidden;whiteSpace=wrap;html=1;" vertex="1" parent="1ABcoUmwUPCNf6aUqQId-186">
          <mxGeometry x="30" width="150.0000000000001" height="30" as="geometry">
            <mxRectangle width="150.0000000000001" height="30" as="alternateBounds" />
          </mxGeometry>
        </mxCell>
        <mxCell id="1ABcoUmwUPCNf6aUqQId-189" value="varchar" style="shape=partialRectangle;connectable=0;fillColor=none;top=0;left=0;bottom=0;right=0;align=left;spacingLeft=6;overflow=hidden;whiteSpace=wrap;html=1;" vertex="1" parent="1ABcoUmwUPCNf6aUqQId-186">
          <mxGeometry x="180.0000000000001" width="72" height="30" as="geometry">
            <mxRectangle width="72" height="30" as="alternateBounds" />
          </mxGeometry>
        </mxCell>
        <mxCell id="1ABcoUmwUPCNf6aUqQId-190" value="" style="shape=tableRow;horizontal=0;startSize=0;swimlaneHead=0;swimlaneBody=0;fillColor=none;collapsible=0;dropTarget=0;points=[[0,0.5],[1,0.5]];portConstraint=eastwest;top=0;left=0;right=0;bottom=0;" vertex="1" parent="1ABcoUmwUPCNf6aUqQId-181">
          <mxGeometry y="90" width="252.0000000000001" height="30" as="geometry" />
        </mxCell>
        <mxCell id="1ABcoUmwUPCNf6aUqQId-191" value="" style="shape=partialRectangle;connectable=0;fillColor=none;top=0;left=0;bottom=0;right=0;editable=1;overflow=hidden;whiteSpace=wrap;html=1;" vertex="1" parent="1ABcoUmwUPCNf6aUqQId-190">
          <mxGeometry width="30" height="30" as="geometry">
            <mxRectangle width="30" height="30" as="alternateBounds" />
          </mxGeometry>
        </mxCell>
        <mxCell id="1ABcoUmwUPCNf6aUqQId-192" value="Email" style="shape=partialRectangle;connectable=0;fillColor=none;top=0;left=0;bottom=0;right=0;align=left;spacingLeft=6;overflow=hidden;whiteSpace=wrap;html=1;" vertex="1" parent="1ABcoUmwUPCNf6aUqQId-190">
          <mxGeometry x="30" width="150.0000000000001" height="30" as="geometry">
            <mxRectangle width="150.0000000000001" height="30" as="alternateBounds" />
          </mxGeometry>
        </mxCell>
        <mxCell id="1ABcoUmwUPCNf6aUqQId-193" value="varchar" style="shape=partialRectangle;connectable=0;fillColor=none;top=0;left=0;bottom=0;right=0;align=left;spacingLeft=6;overflow=hidden;whiteSpace=wrap;html=1;" vertex="1" parent="1ABcoUmwUPCNf6aUqQId-190">
          <mxGeometry x="180.0000000000001" width="72" height="30" as="geometry">
            <mxRectangle width="72" height="30" as="alternateBounds" />
          </mxGeometry>
        </mxCell>
        <mxCell id="1ABcoUmwUPCNf6aUqQId-194" style="edgeStyle=orthogonalEdgeStyle;rounded=0;orthogonalLoop=1;jettySize=auto;html=1;curved=1;endArrow=ERmany;endFill=0;startArrow=ERone;startFill=0;" edge="1" parent="1" source="1ABcoUmwUPCNf6aUqQId-182" target="1ABcoUmwUPCNf6aUqQId-42">
          <mxGeometry relative="1" as="geometry" />
        </mxCell>
        <mxCell id="1ABcoUmwUPCNf6aUqQId-196" style="edgeStyle=orthogonalEdgeStyle;rounded=0;orthogonalLoop=1;jettySize=auto;html=1;exitX=1;exitY=0.5;exitDx=0;exitDy=0;curved=1;endArrow=ERone;endFill=0;startArrow=ERone;startFill=0;" edge="1" parent="1" source="1ABcoUmwUPCNf6aUqQId-78" target="1ABcoUmwUPCNf6aUqQId-115">
          <mxGeometry relative="1" as="geometry" />
        </mxCell>
        <mxCell id="1ABcoUmwUPCNf6aUqQId-197" style="edgeStyle=orthogonalEdgeStyle;rounded=0;orthogonalLoop=1;jettySize=auto;html=1;exitX=1;exitY=0.5;exitDx=0;exitDy=0;curved=1;startArrow=ERone;startFill=0;endArrow=ERmany;endFill=0;" edge="1" parent="1" source="1ABcoUmwUPCNf6aUqQId-36" target="1ABcoUmwUPCNf6aUqQId-111">
          <mxGeometry relative="1" as="geometry" />
        </mxCell>
      </root>
    </mxGraphModel>
  </diagram>
</mxfile>
